<?xml version="1.0" standalone="no"?>
<!DOCTYPE svg PUBLIC "-//W3C//DTD SVG 20010904//EN"
 "http://www.w3.org/TR/2001/REC-SVG-20010904/DTD/svg10.dtd">
<svg version="1.0" xmlns="http://www.w3.org/2000/svg"
 width="260.000000pt" height="260.000000pt" viewBox="0 0 260.000000 260.000000"
 preserveAspectRatio="xMidYMid meet">
<metadata>
Created by potrace 1.11, written by Peter Selinger 2001-2013
</metadata>
<g transform="translate(0.000000,260.000000) scale(0.100000,-0.100000)"
fill="#000000" stroke="none">
<path d="M2019 2575 c-73 -31 -173 -91 -210 -125 -20 -19 -30 -39 -31 -62 -2
-51 2 -210 7 -236 3 -18 -9 -37 -52 -80 -30 -32 -214 -217 -409 -413 l-353
-355 -82 82 -81 83 -87 -53 c-47 -29 -207 -126 -356 -216 -148 -90 -291 -177
-317 -193 l-48 -30 0 -489 0 -488 488 0 489 0 49 86 c27 47 61 104 75 127 14
23 64 107 111 187 47 80 121 206 165 280 l81 135 -74 75 c-41 42 -74 79 -74
84 0 7 330 343 751 765 l47 46 162 0 162 0 34 40 c18 22 55 83 81 135 66 130
65 167 -1 270 -108 167 -210 266 -352 340 -67 36 -101 37 -175 5z m201 -258
c64 -48 169 -155 171 -174 1 -7 2 -19 3 -25 5 -33 -83 -165 -112 -169 -4 0
-16 -2 -27 -3 -11 -2 -48 -6 -82 -10 -35 -4 -73 -9 -85 -11 -13 -1 -48 -5 -78
-9 -30 -4 -67 -9 -83 -12 l-28 -6 6 64 c9 103 25 230 35 273 10 46 45 79 122
117 61 30 75 27 158 -35z"/>
</g>
</svg>
